<svg version="1.1" xmlns="http://www.w3.org/2000/svg" xmlns:xlink="http://www.w3.org/1999/xlink" height="100%" width="100%" x="0px" y="0px" viewBox="0 0 640 480" xml:space="preserve" preserveAspectRatio="xMaxYMin meet" class=""><g class="logo-container-box logoContainerBox" transform="scale(0.75) translate(106.66665140787762,79.99999237060547)"><g class="containerBody" transform="scale(0.9675115469827317) translate(15.56042430329751,8.05907021111571)" ><g class="sampleIcons_1 sampleIconBox" transform="scale(1.0848810675788567) translate(69.11539397048949,172.4734073638916)" fill="#ffffff"><polygon points="78.526,68.886 96.064,68.875 85.143,49.987 74.223,31.098 65.494,46.237 "></polygon><polygon points="56.695,36.459 56.004,37.659 34.97,74.215 56.745,74.202 78.405,74.189 "></polygon><g><polygon points="25.678,31.109 14.786,50 3.888,68.901 25.707,68.888 34.865,68.883 41.139,57.979  "></polygon><polygon points="42.725,55.222 51.018,40.81 40.885,23.283 32.608,37.639  "></polygon></g></g><g class="sampleTexts_1" transform="scale(1) translate(0.000006103515630684342,5.010002136230469)"><g class="logo--name svgLogoName_1 logoNameBox" transform="scale(1) translate(190.62000026702881,239.27999877929688)" fill="#ffffff"><path d="M13.54-5.40L40.75-5.40L40.75 0L7.78 0L7.78-47.52L13.54-47.52L13.54-5.40ZM67.17-47.52L67.17-47.52Q78.40-47.52 84.74-41.33L84.74-41.33L84.74-41.33Q91.07-35.14 91.07-23.76L91.07-23.76L91.07-23.76Q91.07-12.38 84.74-6.19L84.74-6.19L84.74-6.19Q78.40 0 67.17 0L67.17 0L51.83 0L51.83-47.52L67.17-47.52ZM67.74-5.40L67.74-5.40Q75.88-5.40 80.45-10.26L80.45-10.26L80.45-10.26Q85.02-15.12 85.02-23.76L85.02-23.76L85.02-23.76Q85.02-32.40 80.45-37.26L80.45-37.26L80.45-37.26Q75.88-42.12 67.74-42.12L67.74-42.12L57.59-42.12L57.59-5.40L67.74-5.40ZM136.50 0L131.46-13.18L109.93-13.18L104.89 0L98.84 0L117.34-47.52L124.18-47.52L142.62 0L136.50 0ZM112.02-18.58L129.37-18.58L122.96-35.42L120.73-42.05L120.58-42.05L118.50-35.64L112.02-18.58ZM170.04-47.52L170.04-47.52Q177.24-47.52 181.63-43.60L181.63-43.60L181.63-43.60Q186.02-39.67 186.02-33.05L186.02-33.05L186.02-33.05Q186.02-26.42 181.63-22.50L181.63-22.50L181.63-22.50Q177.24-18.58 170.04-18.58L170.04-18.58L159.02-18.58L159.02 0L153.26 0L153.26-47.52L170.04-47.52ZM169.18-23.98L169.18-23.98Q174.72-23.98 177.35-26.24L177.35-26.24L177.35-26.24Q179.98-28.51 179.98-33.05L179.98-33.05L179.98-33.05Q179.98-37.58 177.35-39.85L177.35-39.85L177.35-39.85Q174.72-42.12 169.18-42.12L169.18-42.12L159.02-42.12L159.02-23.98L169.18-23.98ZM199.98-8.64L199.98-8.64Q202.07-8.64 203.37-7.34L203.37-7.34L203.37-7.34Q204.66-6.05 204.66-3.96L204.66-3.96L204.66-3.96Q204.66-1.87 203.37-0.58L203.37-0.58L203.37-0.58Q202.07 0.72 199.98 0.72L199.98 0.72L199.98 0.72Q197.90 0.72 196.60-0.58L196.60-0.58L196.60-0.58Q195.30-1.87 195.30-3.96L195.30-3.96L195.30-3.96Q195.30-6.05 196.60-7.34L196.60-7.34L196.60-7.34Q197.90-8.64 199.98-8.64L199.98-8.64ZM232.45-36.72L232.45-36.72Q237.85-36.72 241.56-34.24L241.56-34.24L241.56-34.24Q245.26-31.75 247.35-27.14L247.35-27.14L241.88-24.55L241.88-24.55Q239.58-31.68 232.30-31.68L232.30-31.68L232.30-31.68Q226.90-31.68 223.84-28.04L223.84-28.04L223.84-28.04Q220.78-24.41 220.78-18.00L220.78-18.00L220.78-18.00Q220.78-11.59 223.84-7.96L223.84-7.96L223.84-7.96Q226.90-4.32 232.30-4.32L232.30-4.32L232.30-4.32Q236.48-4.32 239.04-6.23L239.04-6.23L239.04-6.23Q241.59-8.14 242.38-11.74L242.38-11.74L247.71-9.86L247.71-9.86Q245.84-4.82 241.95-2.05L241.95-2.05L241.95-2.05Q238.06 0.72 232.45 0.72L232.45 0.72L232.45 0.72Q224.31 0.72 219.67-4.25L219.67-4.25L219.67-4.25Q215.02-9.22 215.02-18.00L215.02-18.00L215.02-18.00Q215.02-26.78 219.67-31.75L219.67-31.75L219.67-31.75Q224.31-36.72 232.45-36.72L232.45-36.72ZM274.06-36.72L274.06-36.72Q282.19-36.72 286.84-31.75L286.84-31.75L286.84-31.75Q291.48-26.78 291.48-18.00L291.48-18.00L291.48-18.00Q291.48-9.22 286.84-4.25L286.84-4.25L286.84-4.25Q282.19 0.72 274.06 0.72L274.06 0.72L274.06 0.72Q265.92 0.72 261.28-4.25L261.28-4.25L261.28-4.25Q256.63-9.22 256.63-18.00L256.63-18.00L256.63-18.00Q256.63-26.78 261.28-31.75L261.28-31.75L261.28-31.75Q265.92-36.72 274.06-36.72L274.06-36.72ZM274.06-31.75L274.06-31.75Q268.58-31.75 265.49-28.08L265.49-28.08L265.49-28.08Q262.39-24.41 262.39-18.00L262.39-18.00L262.39-18.00Q262.39-11.59 265.49-7.92L265.49-7.92L265.49-7.92Q268.58-4.25 274.06-4.25L274.06-4.25L274.06-4.25Q279.53-4.25 282.62-7.92L282.62-7.92L282.62-7.92Q285.72-11.59 285.72-18.00L285.72-18.00L285.72-18.00Q285.72-24.41 282.62-28.08L282.62-28.08L282.62-28.08Q279.53-31.75 274.06-31.75L274.06-31.75ZM345.47-36.72L345.47-36.72Q349.07-36.72 352.20-35.24L352.20-35.24L352.20-35.24Q355.34-33.77 357.28-30.67L357.28-30.67L357.28-30.67Q359.22-27.58 359.22-23.04L359.22-23.04L359.22 0L353.46 0L353.46-22.46L353.46-22.46Q353.46-27.14 351.12-29.41L351.12-29.41L351.12-29.41Q348.78-31.68 344.97-31.68L344.97-31.68L344.97-31.68Q342.09-31.68 339.68-30.28L339.68-30.28L339.68-30.28Q337.26-28.87 335.79-26.17L335.79-26.17L335.79-26.17Q334.31-23.47 334.31-19.73L334.31-19.73L334.31 0L328.55 0L328.55-22.46L328.55-22.46Q328.55-27.14 326.21-29.41L326.21-29.41L326.21-29.41Q323.87-31.68 320.06-31.68L320.06-31.68L320.06-31.68Q317.46-31.68 315.02-30.35L315.02-30.35L315.02-30.35Q312.57-29.02 310.98-26.21L310.98-26.21L310.98-26.21Q309.40-23.40 309.40-19.22L309.40-19.22L309.40 0L303.64 0L303.64-36.00L308.68-36.00L309.04-30.38L309.04-30.38Q310.91-33.55 313.97-35.14L313.97-35.14L313.97-35.14Q317.03-36.72 320.56-36.72L320.56-36.72L320.56-36.72Q324.52-36.72 327.87-34.92L327.87-34.92L327.87-34.92Q331.22-33.12 332.94-29.66L332.94-29.66L332.94-29.66Q334.53-33.12 338.13-34.92L338.13-34.92L338.13-34.92Q341.73-36.72 345.47-36.72L345.47-36.72Z"/></g><g id="" class="logo--name svgSloganText_1 sloganBox" transform="scale(1) translate(196.25999989509583,273.3999996185303)" fill="#ffffff"><path d="M13.42 0L2.14 0L2.14-17.40L4.78-17.40L4.78-2.50L13.42-2.50L13.42 0ZM14.88-13.87L14.88-13.87L14.88-13.87Q14.88-14.45 15.30-14.83L15.30-14.83L15.30-14.83Q15.72-15.22 16.20-15.22L16.20-15.22L16.20-15.22Q16.68-15.22 17.09-14.83L17.09-14.83L17.09-14.83Q17.50-14.45 17.50-13.87L17.50-13.87L17.50-13.87Q17.50-13.30 17.09-12.92L17.09-12.92L17.09-12.92Q16.68-12.55 16.20-12.55L16.20-12.55L16.20-12.55Q15.72-12.55 15.30-12.92L15.30-12.92L15.30-12.92Q14.88-13.30 14.88-13.87ZM17.18-10.03L17.18 0L15.14 0L15.14-10.03L17.18-10.03ZM19.39-4.99L19.39-4.99L19.39-4.99Q19.39-6.12 19.80-7.09L19.80-7.09L19.80-7.09Q20.21-8.06 20.90-8.77L20.90-8.77L20.90-8.77Q21.60-9.48 22.54-9.89L22.54-9.89L22.54-9.89Q23.47-10.30 24.53-10.30L24.53-10.30L24.53-10.30Q25.34-10.30 25.98-10.08L25.98-10.08L25.98-10.08Q26.62-9.86 27.05-9.58L27.05-9.58L27.05-9.58Q27.48-9.29 27.73-9.01L27.73-9.01L27.73-9.01Q27.98-8.74 28.06-8.62L28.06-8.62L28.06-8.62Q28.06-8.95 28.10-9.32L28.10-9.32L28.10-9.32Q28.15-9.70 28.15-10.03L28.15-10.03L30.12-10.03L30.12-0.46L30.12-0.46Q30.12 2.04 28.66 3.43L28.66 3.43L28.66 3.43Q27.19 4.82 24.70 4.82L24.70 4.82L24.70 4.82Q23.83 4.82 23.15 4.64L23.15 4.64L23.15 4.64Q22.46 4.46 21.90 4.18L21.90 4.18L21.90 4.18Q21.34 3.89 20.87 3.50L20.87 3.50L20.87 3.50Q20.40 3.12 19.94 2.71L19.94 2.71L21.26 1.32L21.26 1.32Q22.01 2.02 22.79 2.42L22.79 2.42L22.79 2.42Q23.57 2.83 24.65 2.83L24.65 2.83L24.65 2.83Q26.26 2.83 27.14 2.06L27.14 2.06L27.14 2.06Q28.03 1.30 28.06-0.07L28.06-0.07L28.06-0.77L28.06-0.77Q28.06-0.96 28.10-1.19L28.10-1.19L28.10-1.19Q28.15-1.42 28.15-1.54L28.15-1.54L28.15-1.54Q27.94-1.25 27.61-0.92L27.61-0.92L27.61-0.92Q27.29-0.60 26.86-0.35L26.86-0.35L26.86-0.35Q26.42-0.10 25.85 0.07L25.85 0.07L25.85 0.07Q25.27 0.24 24.55 0.24L24.55 0.24L24.55 0.24Q23.42 0.24 22.49-0.17L22.49-0.17L22.49-0.17Q21.55-0.58 20.86-1.28L20.86-1.28L20.86-1.28Q20.16-1.99 19.78-2.94L19.78-2.94L19.78-2.94Q19.39-3.89 19.39-4.99ZM21.46-5.04L21.46-5.04L21.46-5.04Q21.46-4.34 21.71-3.74L21.71-3.74L21.71-3.74Q21.96-3.14 22.39-2.71L22.39-2.71L22.39-2.71Q22.82-2.28 23.42-2.03L23.42-2.03L23.42-2.03Q24.02-1.78 24.74-1.78L24.74-1.78L24.74-1.78Q25.46-1.78 26.08-2.03L26.08-2.03L26.08-2.03Q26.69-2.28 27.13-2.72L27.13-2.72L27.13-2.72Q27.58-3.17 27.82-3.76L27.82-3.76L27.82-3.76Q28.06-4.34 28.06-5.04L28.06-5.04L28.06-5.04Q28.06-5.74 27.82-6.32L27.82-6.32L27.82-6.32Q27.58-6.91 27.13-7.34L27.13-7.34L27.13-7.34Q26.69-7.78 26.08-8.03L26.08-8.03L26.08-8.03Q25.46-8.28 24.74-8.28L24.74-8.28L24.74-8.28Q24.02-8.28 23.42-8.03L23.42-8.03L23.42-8.03Q22.82-7.78 22.39-7.34L22.39-7.34L22.39-7.34Q21.96-6.91 21.71-6.32L21.71-6.32L21.71-6.32Q21.46-5.74 21.46-5.04ZM33 0L33-18.65L35.04-18.65L35.04-7.61L35.04-7.61Q35.57-8.81 36.53-9.54L36.53-9.54L36.53-9.54Q37.49-10.27 39-10.30L39-10.30L39-10.30Q40.54-10.32 41.46-9.48L41.46-9.48L41.46-9.48Q42.38-8.64 42.43-7.30L42.43-7.30L42.43 0L40.37 0L40.37-6.36L40.37-6.36Q40.32-7.13 39.84-7.67L39.84-7.67L39.84-7.67Q39.36-8.21 38.33-8.26L38.33-8.26L38.33-8.26Q37.61-8.26 37.01-8.00L37.01-8.00L37.01-8.00Q36.41-7.75 35.98-7.32L35.98-7.32L35.98-7.32Q35.54-6.89 35.29-6.29L35.29-6.29L35.29-6.29Q35.04-5.69 35.04-4.97L35.04-4.97L35.04 0L33 0ZM46.08-10.01L46.08-14.45L48.12-14.45L48.12-10.01L50.81-10.01L50.81-8.18L48.12-8.18L48.12 0L46.08 0L46.08-8.18L44.28-8.18L44.28-10.01L46.08-10.01ZM57.98-8.42L57.98-8.42L57.24-10.03L59.02-10.03L59.02-10.03Q59.71-8.52 60.19-7.43L60.19-7.43L60.19-7.43Q60.67-6.34 61.01-5.53L61.01-5.53L61.01-5.53Q61.34-4.73 61.56-4.18L61.56-4.18L61.56-4.18Q61.78-3.62 61.92-3.24L61.92-3.24L61.92-3.24Q62.06-3.96 62.27-4.55L62.27-4.55L62.27-4.55Q62.47-5.14 62.78-5.87L62.78-5.87L62.78-5.87Q63.10-6.60 63.54-7.57L63.54-7.57L63.54-7.57Q63.98-8.54 64.61-10.03L64.61-10.03L66.67-10.03L61.92 0.60L61.92 0.60Q61.49-0.29 61.12-1.16L61.12-1.16L61.12-1.16Q60.74-2.04 60.40-2.90L60.40-2.90L60.40-2.90Q60.05-3.77 59.68-4.63L59.68-4.63L59.68-4.63Q59.30-5.50 58.87-6.41L58.87-6.41L55.82 0.60L51.29-10.03L53.35-10.03L53.35-10.03Q53.98-8.54 54.38-7.56L54.38-7.56L54.38-7.56Q54.79-6.58 55.07-5.86L55.07-5.86L55.07-5.86Q55.34-5.14 55.51-4.55L55.51-4.55L55.51-4.55Q55.68-3.96 55.82-3.24L55.82-3.24L55.82-3.24Q55.92-3.53 56.05-3.89L56.05-3.89L56.05-3.89Q56.18-4.25 56.41-4.81L56.41-4.81L56.41-4.81Q56.64-5.38 57.02-6.24L57.02-6.24L57.02-6.24Q57.41-7.10 57.98-8.42ZM75.17-2.66L76.70-1.18L76.70-1.18Q75.98-0.53 74.95-0.14L74.95-0.14L74.95-0.14Q73.92 0.24 72.84 0.24L72.84 0.24L72.84 0.24Q71.74 0.24 70.76-0.18L70.76-0.18L70.76-0.18Q69.79-0.60 69.07-1.31L69.07-1.31L69.07-1.31Q68.35-2.02 67.93-2.98L67.93-2.98L67.93-2.98Q67.51-3.94 67.51-5.02L67.51-5.02L67.51-5.02Q67.51-6.10 67.93-7.06L67.93-7.06L67.93-7.06Q68.35-8.02 69.07-8.74L69.07-8.74L69.07-8.74Q69.79-9.46 70.74-9.88L70.74-9.88L70.74-9.88Q71.69-10.30 72.77-10.30L72.77-10.30L72.77-10.30Q74.47-10.30 75.73-9.28L75.73-9.28L75.73-9.28Q76.99-8.26 77.54-6.60L77.54-6.60L77.54-6.60Q76.80-6.34 75.84-5.95L75.84-5.95L75.84-5.95Q74.88-5.57 73.85-5.15L73.85-5.15L73.85-5.15Q72.82-4.73 71.78-4.32L71.78-4.32L71.78-4.32Q70.75-3.91 69.86-3.58L69.86-3.58L69.86-3.58Q70.27-2.76 71.05-2.27L71.05-2.27L71.05-2.27Q71.83-1.78 72.79-1.78L72.79-1.78L72.79-1.78Q73.44-1.78 74.10-2.02L74.10-2.02L74.10-2.02Q74.76-2.26 75.17-2.66L75.17-2.66ZM74.98-7.08L74.98-7.08L74.98-7.08Q74.69-7.68 74.06-7.98L74.06-7.98L74.06-7.98Q73.44-8.28 72.79-8.28L72.79-8.28L72.79-8.28Q72.10-8.28 71.51-8.02L71.51-8.02L71.51-8.02Q70.92-7.75 70.49-7.31L70.49-7.31L70.49-7.31Q70.06-6.86 69.80-6.29L69.80-6.29L69.80-6.29Q69.55-5.71 69.55-5.11L69.55-5.11L69.55-5.11Q69.55-4.99 69.56-4.94L69.56-4.94L69.56-4.94Q69.58-4.90 69.58-4.87L69.58-4.87L69.58-4.87Q70.20-5.11 70.93-5.41L70.93-5.41L70.93-5.41Q71.66-5.71 72.38-6.01L72.38-6.01L72.38-6.01Q73.10-6.31 73.78-6.59L73.78-6.59L73.78-6.59Q74.45-6.86 74.98-7.08ZM79.06-13.87L79.06-13.87L79.06-13.87Q79.06-14.45 79.48-14.83L79.48-14.83L79.48-14.83Q79.90-15.22 80.38-15.22L80.38-15.22L80.38-15.22Q80.86-15.22 81.26-14.83L81.26-14.83L81.26-14.83Q81.67-14.45 81.67-13.87L81.67-13.87L81.67-13.87Q81.67-13.30 81.26-12.92L81.26-12.92L81.26-12.92Q80.86-12.55 80.38-12.55L80.38-12.55L80.38-12.55Q79.90-12.55 79.48-12.92L79.48-12.92L79.48-12.92Q79.06-13.30 79.06-13.87ZM81.36-10.03L81.36 0L79.32 0L79.32-10.03L81.36-10.03ZM83.57-4.99L83.57-4.99L83.57-4.99Q83.57-6.12 83.98-7.09L83.98-7.09L83.98-7.09Q84.38-8.06 85.08-8.77L85.08-8.77L85.08-8.77Q85.78-9.48 86.71-9.89L86.71-9.89L86.71-9.89Q87.65-10.30 88.70-10.30L88.70-10.30L88.70-10.30Q89.52-10.30 90.16-10.08L90.16-10.08L90.16-10.08Q90.79-9.86 91.22-9.58L91.22-9.58L91.22-9.58Q91.66-9.29 91.91-9.01L91.91-9.01L91.91-9.01Q92.16-8.74 92.23-8.62L92.23-8.62L92.23-8.62Q92.23-8.95 92.28-9.32L92.28-9.32L92.28-9.32Q92.33-9.70 92.33-10.03L92.33-10.03L94.30-10.03L94.30-0.46L94.30-0.46Q94.30 2.04 92.83 3.43L92.83 3.43L92.83 3.43Q91.37 4.82 88.87 4.82L88.87 4.82L88.87 4.82Q88.01 4.82 87.32 4.64L87.32 4.64L87.32 4.64Q86.64 4.46 86.08 4.18L86.08 4.18L86.08 4.18Q85.51 3.89 85.04 3.50L85.04 3.50L85.04 3.50Q84.58 3.12 84.12 2.71L84.12 2.71L85.44 1.32L85.44 1.32Q86.18 2.02 86.96 2.42L86.96 2.42L86.96 2.42Q87.74 2.83 88.82 2.83L88.82 2.83L88.82 2.83Q90.43 2.83 91.32 2.06L91.32 2.06L91.32 2.06Q92.21 1.30 92.23-0.07L92.23-0.07L92.23-0.77L92.23-0.77Q92.23-0.96 92.28-1.19L92.28-1.19L92.28-1.19Q92.33-1.42 92.33-1.54L92.33-1.54L92.33-1.54Q92.11-1.25 91.79-0.92L91.79-0.92L91.79-0.92Q91.46-0.60 91.03-0.35L91.03-0.35L91.03-0.35Q90.60-0.10 90.02 0.07L90.02 0.07L90.02 0.07Q89.45 0.24 88.73 0.24L88.73 0.24L88.73 0.24Q87.60 0.24 86.66-0.17L86.66-0.17L86.66-0.17Q85.73-0.58 85.03-1.28L85.03-1.28L85.03-1.28Q84.34-1.99 83.95-2.94L83.95-2.94L83.95-2.94Q83.57-3.89 83.57-4.99ZM85.63-5.04L85.63-5.04L85.63-5.04Q85.63-4.34 85.88-3.74L85.88-3.74L85.88-3.74Q86.14-3.14 86.57-2.71L86.57-2.71L86.57-2.71Q87-2.28 87.60-2.03L87.60-2.03L87.60-2.03Q88.20-1.78 88.92-1.78L88.92-1.78L88.92-1.78Q89.64-1.78 90.25-2.03L90.25-2.03L90.25-2.03Q90.86-2.28 91.31-2.72L91.31-2.72L91.31-2.72Q91.75-3.17 91.99-3.76L91.99-3.76L91.99-3.76Q92.23-4.34 92.23-5.04L92.23-5.04L92.23-5.04Q92.23-5.74 91.99-6.32L91.99-6.32L91.99-6.32Q91.75-6.91 91.31-7.34L91.31-7.34L91.31-7.34Q90.86-7.78 90.25-8.03L90.25-8.03L90.25-8.03Q89.64-8.28 88.92-8.28L88.92-8.28L88.92-8.28Q88.20-8.28 87.60-8.03L87.60-8.03L87.60-8.03Q87-7.78 86.57-7.34L86.57-7.34L86.57-7.34Q86.14-6.91 85.88-6.32L85.88-6.32L85.88-6.32Q85.63-5.74 85.63-5.04ZM97.18 0L97.18-18.65L99.22-18.65L99.22-7.61L99.22-7.61Q99.74-8.81 100.70-9.54L100.70-9.54L100.70-9.54Q101.66-10.27 103.18-10.30L103.18-10.30L103.18-10.30Q104.71-10.32 105.64-9.48L105.64-9.48L105.64-9.48Q106.56-8.64 106.61-7.30L106.61-7.30L106.61 0L104.54 0L104.54-6.36L104.54-6.36Q104.50-7.13 104.02-7.67L104.02-7.67L104.02-7.67Q103.54-8.21 102.50-8.26L102.50-8.26L102.50-8.26Q101.78-8.26 101.18-8.00L101.18-8.00L101.18-8.00Q100.58-7.75 100.15-7.32L100.15-7.32L100.15-7.32Q99.72-6.89 99.47-6.29L99.47-6.29L99.47-6.29Q99.22-5.69 99.22-4.97L99.22-4.97L99.22 0L97.18 0ZM110.26-10.01L110.26-14.45L112.30-14.45L112.30-10.01L114.98-10.01L114.98-8.18L112.30-8.18L112.30 0L110.26 0L110.26-8.18L108.46-8.18L108.46-10.01L110.26-10.01ZM120.50 0L120.50-17.40L124.87-17.40L124.87-17.40Q127.51-17.40 129.34-16.61L129.34-16.61L129.34-16.61Q131.16-15.82 132.30-14.53L132.30-14.53L132.30-14.53Q133.44-13.25 133.96-11.65L133.96-11.65L133.96-11.65Q134.47-10.06 134.47-8.47L134.47-8.47L134.47-8.47Q134.47-6.53 133.78-4.96L133.78-4.96L133.78-4.96Q133.08-3.38 131.88-2.28L131.88-2.28L131.88-2.28Q130.68-1.18 129.10-0.59L129.10-0.59L129.10-0.59Q127.51 0 125.74 0L125.74 0L120.50 0ZM123.12-2.50L125.35-2.50L125.35-2.50Q126.74-2.50 127.93-2.90L127.93-2.90L127.93-2.90Q129.12-3.31 130.00-4.09L130.00-4.09L130.00-4.09Q130.87-4.87 131.36-6.01L131.36-6.01L131.36-6.01Q131.86-7.15 131.86-8.64L131.86-8.64L131.86-8.64Q131.86-10.22 131.30-11.40L131.30-11.40L131.30-11.40Q130.75-12.58 129.86-13.36L129.86-13.36L129.86-13.36Q128.98-14.14 127.86-14.51L127.86-14.51L127.86-14.51Q126.74-14.88 125.59-14.88L125.59-14.88L123.12-14.88L123.12-2.50ZM136.61-13.87L136.61-13.87L136.61-13.87Q136.61-14.45 137.03-14.83L137.03-14.83L137.03-14.83Q137.45-15.22 137.93-15.22L137.93-15.22L137.93-15.22Q138.41-15.22 138.82-14.83L138.82-14.83L138.82-14.83Q139.22-14.45 139.22-13.87L139.22-13.87L139.22-13.87Q139.22-13.30 138.82-12.92L138.82-12.92L138.82-12.92Q138.41-12.55 137.93-12.55L137.93-12.55L137.93-12.55Q137.45-12.55 137.03-12.92L137.03-12.92L137.03-12.92Q136.61-13.30 136.61-13.87ZM138.91-10.03L138.91 0L136.87 0L136.87-10.03L138.91-10.03ZM147.77-10.30L147.31-7.66L147.31-7.66Q146.64-7.66 146.02-7.48L146.02-7.48L146.02-7.48Q145.39-7.30 144.90-6.94L144.90-6.94L144.90-6.94Q144.41-6.58 144.12-6.04L144.12-6.04L144.12-6.04Q143.83-5.50 143.83-4.80L143.83-4.80L143.83 0L141.79 0L141.79-10.03L143.59-10.03L143.59-10.03Q143.64-9.29 143.68-8.68L143.68-8.68L143.68-8.68Q143.71-8.06 143.76-7.46L143.76-7.46L143.76-7.46Q144.07-8.11 144.58-8.64L144.58-8.64L144.58-8.64Q145.08-9.17 145.66-9.53L145.66-9.53L145.66-9.53Q146.23-9.89 146.78-10.09L146.78-10.09L146.78-10.09Q147.34-10.30 147.77-10.30L147.77-10.30ZM156.22-2.66L157.75-1.18L157.75-1.18Q157.03-0.53 156-0.14L156-0.14L156-0.14Q154.97 0.24 153.89 0.24L153.89 0.24L153.89 0.24Q152.78 0.24 151.81-0.18L151.81-0.18L151.81-0.18Q150.84-0.60 150.12-1.31L150.12-1.31L150.12-1.31Q149.40-2.02 148.98-2.98L148.98-2.98L148.98-2.98Q148.56-3.94 148.56-5.02L148.56-5.02L148.56-5.02Q148.56-6.10 148.98-7.06L148.98-7.06L148.98-7.06Q149.40-8.02 150.12-8.74L150.12-8.74L150.12-8.74Q150.84-9.46 151.79-9.88L151.79-9.88L151.79-9.88Q152.74-10.30 153.82-10.30L153.82-10.30L153.82-10.30Q155.52-10.30 156.78-9.28L156.78-9.28L156.78-9.28Q158.04-8.26 158.59-6.60L158.59-6.60L158.59-6.60Q157.85-6.34 156.89-5.95L156.89-5.95L156.89-5.95Q155.93-5.57 154.90-5.15L154.90-5.15L154.90-5.15Q153.86-4.73 152.83-4.32L152.83-4.32L152.83-4.32Q151.80-3.91 150.91-3.58L150.91-3.58L150.91-3.58Q151.32-2.76 152.10-2.27L152.10-2.27L152.10-2.27Q152.88-1.78 153.84-1.78L153.84-1.78L153.84-1.78Q154.49-1.78 155.15-2.02L155.15-2.02L155.15-2.02Q155.81-2.26 156.22-2.66L156.22-2.66ZM156.02-7.08L156.02-7.08L156.02-7.08Q155.74-7.68 155.11-7.98L155.11-7.98L155.11-7.98Q154.49-8.28 153.84-8.28L153.84-8.28L153.84-8.28Q153.14-8.28 152.56-8.02L152.56-8.02L152.56-8.02Q151.97-7.75 151.54-7.31L151.54-7.31L151.54-7.31Q151.10-6.86 150.85-6.29L150.85-6.29L150.85-6.29Q150.60-5.71 150.60-5.11L150.60-5.11L150.60-5.11Q150.60-4.99 150.61-4.94L150.61-4.94L150.61-4.94Q150.62-4.90 150.62-4.87L150.62-4.87L150.62-4.87Q151.25-5.11 151.98-5.41L151.98-5.41L151.98-5.41Q152.71-5.71 153.43-6.01L153.43-6.01L153.43-6.01Q154.15-6.31 154.82-6.59L154.82-6.59L154.82-6.59Q155.50-6.86 156.02-7.08ZM167.09-2.47L167.09-2.47L167.09-2.47Q167.42-2.06 167.72-1.69L167.72-1.69L167.72-1.69Q168.02-1.32 168.34-0.91L168.34-0.91L168.34-0.91Q167.66-0.38 166.82-0.07L166.82-0.07L166.82-0.07Q165.98 0.24 165 0.24L165 0.24L165 0.24Q163.90 0.24 162.92-0.18L162.92-0.18L162.92-0.18Q161.95-0.60 161.23-1.32L161.23-1.32L161.23-1.32Q160.51-2.04 160.09-3L160.09-3L160.09-3Q159.67-3.96 159.67-5.04L159.67-5.04L159.67-5.04Q159.67-6.12 160.09-7.08L160.09-7.08L160.09-7.08Q160.51-8.04 161.23-8.75L161.23-8.75L161.23-8.75Q161.95-9.46 162.92-9.88L162.92-9.88L162.92-9.88Q163.90-10.30 165-10.30L165-10.30L165-10.30Q166.01-10.30 166.86-9.98L166.86-9.98L166.86-9.98Q167.71-9.67 168.41-9.14L168.41-9.14L167.09-7.58L167.09-7.58Q166.68-7.92 166.15-8.10L166.15-8.10L166.15-8.10Q165.62-8.28 165-8.28L165-8.28L165-8.28Q164.28-8.28 163.68-8.03L163.68-8.03L163.68-8.03Q163.08-7.78 162.64-7.34L162.64-7.34L162.64-7.34Q162.19-6.91 161.95-6.32L161.95-6.32L161.95-6.32Q161.71-5.74 161.71-5.04L161.71-5.04L161.71-5.04Q161.71-4.34 161.95-3.76L161.95-3.76L161.95-3.76Q162.19-3.17 162.64-2.72L162.64-2.72L162.64-2.72Q163.08-2.28 163.68-2.03L163.68-2.03L163.68-2.03Q164.28-1.78 165-1.78L165-1.78L165-1.78Q165.62-1.78 166.15-1.96L166.15-1.96L166.15-1.96Q166.68-2.14 167.09-2.47ZM171.22-10.01L171.22-14.45L173.26-14.45L173.26-10.01L175.94-10.01L175.94-8.18L173.26-8.18L173.26 0L171.22 0L171.22-8.18L169.42-8.18L169.42-10.01L171.22-10.01ZM176.95-5.04L176.95-5.04L176.95-5.04Q176.95-6.12 177.37-7.08L177.37-7.08L177.37-7.08Q177.79-8.04 178.51-8.75L178.51-8.75L178.51-8.75Q179.23-9.46 180.20-9.88L180.20-9.88L180.20-9.88Q181.18-10.30 182.30-10.30L182.30-10.30L182.30-10.30Q183.43-10.30 184.40-9.88L184.40-9.88L184.40-9.88Q185.38-9.46 186.08-8.75L186.08-8.75L186.08-8.75Q186.79-8.04 187.19-7.08L187.19-7.08L187.19-7.08Q187.58-6.12 187.58-5.04L187.58-5.04L187.58-5.04Q187.58-3.96 187.19-3L187.19-3L187.19-3Q186.79-2.04 186.08-1.32L186.08-1.32L186.08-1.32Q185.38-0.60 184.40-0.18L184.40-0.18L184.40-0.18Q183.43 0.24 182.28 0.24L182.28 0.24L182.28 0.24Q181.18 0.24 180.20-0.14L180.20-0.14L180.20-0.14Q179.23-0.53 178.51-1.22L178.51-1.22L178.51-1.22Q177.79-1.92 177.37-2.89L177.37-2.89L177.37-2.89Q176.95-3.86 176.95-5.04ZM178.99-5.02L178.99-5.02L178.99-5.02Q178.99-4.34 179.24-3.76L179.24-3.76L179.24-3.76Q179.50-3.17 179.94-2.72L179.94-2.72L179.94-2.72Q180.38-2.28 180.97-2.03L180.97-2.03L180.97-2.03Q181.56-1.78 182.23-1.78L182.23-1.78L182.23-1.78Q182.90-1.78 183.50-2.03L183.50-2.03L183.50-2.03Q184.10-2.28 184.55-2.72L184.55-2.72L184.55-2.72Q184.99-3.17 185.26-3.76L185.26-3.76L185.26-3.76Q185.52-4.34 185.52-5.02L185.52-5.02L185.52-5.02Q185.52-5.69 185.26-6.29L185.26-6.29L185.26-6.29Q184.99-6.89 184.55-7.33L184.55-7.33L184.55-7.33Q184.10-7.78 183.50-8.03L183.50-8.03L183.50-8.03Q182.90-8.28 182.23-8.28L182.23-8.28L182.23-8.28Q181.56-8.28 180.97-8.03L180.97-8.03L180.97-8.03Q180.38-7.78 179.94-7.33L179.94-7.33L179.94-7.33Q179.50-6.89 179.24-6.29L179.24-6.29L179.24-6.29Q178.99-5.69 178.99-5.02ZM195.74-10.30L195.29-7.66L195.29-7.66Q194.62-7.66 193.99-7.48L193.99-7.48L193.99-7.48Q193.37-7.30 192.88-6.94L192.88-6.94L192.88-6.94Q192.38-6.58 192.10-6.04L192.10-6.04L192.10-6.04Q191.81-5.50 191.81-4.80L191.81-4.80L191.81 0L189.77 0L189.77-10.03L191.57-10.03L191.57-10.03Q191.62-9.29 191.65-8.68L191.65-8.68L191.65-8.68Q191.69-8.06 191.74-7.46L191.74-7.46L191.74-7.46Q192.05-8.11 192.55-8.64L192.55-8.64L192.55-8.64Q193.06-9.17 193.63-9.53L193.63-9.53L193.63-9.53Q194.21-9.89 194.76-10.09L194.76-10.09L194.76-10.09Q195.31-10.30 195.74-10.30L195.74-10.30ZM207.14-10.03L199.99 4.82L197.93 4.82L197.93 4.82Q198.26 4.13 198.56 3.49L198.56 3.49L198.56 3.49Q198.86 2.86 199.16 2.20L199.16 2.20L199.16 2.20Q199.46 1.54 199.78 0.83L199.78 0.83L199.78 0.83Q200.09 0.12 200.47-0.70L200.47-0.70L200.47-0.70Q199.92-1.78 199.34-2.96L199.34-2.96L199.34-2.96Q198.77-4.15 198.19-5.35L198.19-5.35L198.19-5.35Q197.62-6.55 197.05-7.75L197.05-7.75L197.05-7.75Q196.49-8.95 195.94-10.03L195.94-10.03L198.17-10.03L198.17-10.03Q199.03-8.33 199.60-7.15L199.60-7.15L199.60-7.15Q200.16-5.98 200.53-5.12L200.53-5.12L200.53-5.12Q200.90-4.27 201.13-3.67L201.13-3.67L201.13-3.67Q201.36-3.07 201.53-2.57L201.53-2.57L201.53-2.57Q201.72-3.07 201.95-3.67L201.95-3.67L201.95-3.67Q202.18-4.27 202.55-5.12L202.55-5.12L202.55-5.12Q202.92-5.98 203.48-7.15L203.48-7.15L203.48-7.15Q204.05-8.33 204.91-10.03L204.91-10.03L207.14-10.03ZM225.91 0L223.32 0L223.32 0Q223.20-0.26 222.98-0.77L222.98-0.77L222.98-0.77Q222.77-1.27 222.49-1.93L222.49-1.93L222.49-1.93Q222.22-2.59 221.89-3.37L221.89-3.37L221.89-3.37Q221.57-4.15 221.23-4.99L221.23-4.99L215.09-4.99L213.02 0L210.43 0L218.18-18.22L218.18-18.22Q218.33-17.88 218.70-16.99L218.70-16.99L218.70-16.99Q219.07-16.10 219.59-14.87L219.59-14.87L219.59-14.87Q220.10-13.63 220.74-12.13L220.74-12.13L220.74-12.13Q221.38-10.63 222.04-9.10L222.04-9.10L222.04-9.10Q222.70-7.56 223.33-6.07L223.33-6.07L223.33-6.07Q223.97-4.58 224.50-3.34L224.50-3.34L224.50-3.34Q225.02-2.09 225.40-1.21L225.40-1.21L225.40-1.21Q225.77-0.34 225.91 0L225.91 0ZM217.92-11.86L216.00-7.20L220.34-7.20L220.34-7.20Q220.01-7.99 219.71-8.72L219.71-8.72L219.71-8.72Q219.41-9.46 219.16-10.07L219.16-10.07L219.16-10.07Q218.90-10.68 218.71-11.14L218.71-11.14L218.71-11.14Q218.52-11.59 218.42-11.86L218.42-11.86L218.42-11.86Q218.40-11.90 218.32-12.19L218.32-12.19L218.32-12.19Q218.23-12.48 218.18-12.72L218.18-12.72L218.18-12.72Q218.14-12.48 218.04-12.19L218.04-12.19L218.04-12.19Q217.94-11.90 217.92-11.86L217.92-11.86ZM234.10-2.47L234.10-2.47L234.10-2.47Q234.43-2.06 234.73-1.69L234.73-1.69L234.73-1.69Q235.03-1.32 235.34-0.91L235.34-0.91L235.34-0.91Q234.67-0.38 233.83-0.07L233.83-0.07L233.83-0.07Q232.99 0.24 232.01 0.24L232.01 0.24L232.01 0.24Q230.90 0.24 229.93-0.18L229.93-0.18L229.93-0.18Q228.96-0.60 228.24-1.32L228.24-1.32L228.24-1.32Q227.52-2.04 227.10-3L227.10-3L227.10-3Q226.68-3.96 226.68-5.04L226.68-5.04L226.68-5.04Q226.68-6.12 227.10-7.08L227.10-7.08L227.10-7.08Q227.52-8.04 228.24-8.75L228.24-8.75L228.24-8.75Q228.96-9.46 229.93-9.88L229.93-9.88L229.93-9.88Q230.90-10.30 232.01-10.30L232.01-10.30L232.01-10.30Q233.02-10.30 233.87-9.98L233.87-9.98L233.87-9.98Q234.72-9.67 235.42-9.14L235.42-9.14L234.10-7.58L234.10-7.58Q233.69-7.92 233.16-8.10L233.16-8.10L233.16-8.10Q232.63-8.28 232.01-8.28L232.01-8.28L232.01-8.28Q231.29-8.28 230.69-8.03L230.69-8.03L230.69-8.03Q230.09-7.78 229.64-7.34L229.64-7.34L229.64-7.34Q229.20-6.91 228.96-6.32L228.96-6.32L228.96-6.32Q228.72-5.74 228.72-5.04L228.72-5.04L228.72-5.04Q228.72-4.34 228.96-3.76L228.96-3.76L228.96-3.76Q229.20-3.17 229.64-2.72L229.64-2.72L229.64-2.72Q230.09-2.28 230.69-2.03L230.69-2.03L230.69-2.03Q231.29-1.78 232.01-1.78L232.01-1.78L232.01-1.78Q232.63-1.78 233.16-1.96L233.16-1.96L233.16-1.96Q233.69-2.14 234.10-2.47ZM244.08-2.47L244.08-2.47L244.08-2.47Q244.42-2.06 244.72-1.69L244.72-1.69L244.72-1.69Q245.02-1.32 245.33-0.91L245.33-0.91L245.33-0.91Q244.66-0.38 243.82-0.07L243.82-0.07L243.82-0.07Q242.98 0.24 241.99 0.24L241.99 0.24L241.99 0.24Q240.89 0.24 239.92-0.18L239.92-0.18L239.92-0.18Q238.94-0.60 238.22-1.32L238.22-1.32L238.22-1.32Q237.50-2.04 237.08-3L237.08-3L237.08-3Q236.66-3.96 236.66-5.04L236.66-5.04L236.66-5.04Q236.66-6.12 237.08-7.08L237.08-7.08L237.08-7.08Q237.50-8.04 238.22-8.75L238.22-8.75L238.22-8.75Q238.94-9.46 239.92-9.88L239.92-9.88L239.92-9.88Q240.89-10.30 241.99-10.30L241.99-10.30L241.99-10.30Q243.00-10.30 243.85-9.98L243.85-9.98L243.85-9.98Q244.70-9.67 245.40-9.14L245.40-9.14L244.08-7.58L244.08-7.58Q243.67-7.92 243.14-8.10L243.14-8.10L243.14-8.10Q242.62-8.28 241.99-8.28L241.99-8.28L241.99-8.28Q241.27-8.28 240.67-8.03L240.67-8.03L240.67-8.03Q240.07-7.78 239.63-7.34L239.63-7.34L239.63-7.34Q239.18-6.91 238.94-6.32L238.94-6.32L238.94-6.32Q238.70-5.74 238.70-5.04L238.70-5.04L238.70-5.04Q238.70-4.34 238.94-3.76L238.94-3.76L238.94-3.76Q239.18-3.17 239.63-2.72L239.63-2.72L239.63-2.72Q240.07-2.28 240.67-2.03L240.67-2.03L240.67-2.03Q241.27-1.78 241.99-1.78L241.99-1.78L241.99-1.78Q242.62-1.78 243.14-1.96L243.14-1.96L243.14-1.96Q243.67-2.14 244.08-2.47ZM254.30-2.66L255.84-1.18L255.84-1.18Q255.12-0.53 254.09-0.14L254.09-0.14L254.09-0.14Q253.06 0.24 251.98 0.24L251.98 0.24L251.98 0.24Q250.87 0.24 249.90-0.18L249.90-0.18L249.90-0.18Q248.93-0.60 248.21-1.31L248.21-1.31L248.21-1.31Q247.49-2.02 247.07-2.98L247.07-2.98L247.07-2.98Q246.65-3.94 246.65-5.02L246.65-5.02L246.65-5.02Q246.65-6.10 247.07-7.06L247.07-7.06L247.07-7.06Q247.49-8.02 248.21-8.74L248.21-8.74L248.21-8.74Q248.93-9.46 249.88-9.88L249.88-9.88L249.88-9.88Q250.82-10.30 251.90-10.30L251.90-10.30L251.90-10.30Q253.61-10.30 254.87-9.28L254.87-9.28L254.87-9.28Q256.13-8.26 256.68-6.60L256.68-6.60L256.68-6.60Q255.94-6.34 254.98-5.95L254.98-5.95L254.98-5.95Q254.02-5.57 252.98-5.15L252.98-5.15L252.98-5.15Q251.95-4.73 250.92-4.32L250.92-4.32L250.92-4.32Q249.89-3.91 249.00-3.58L249.00-3.58L249.00-3.58Q249.41-2.76 250.19-2.27L250.19-2.27L250.19-2.27Q250.97-1.78 251.93-1.78L251.93-1.78L251.93-1.78Q252.58-1.78 253.24-2.02L253.24-2.02L253.24-2.02Q253.90-2.26 254.30-2.66L254.30-2.66ZM254.11-7.08L254.11-7.08L254.11-7.08Q253.82-7.68 253.20-7.98L253.20-7.98L253.20-7.98Q252.58-8.28 251.93-8.28L251.93-8.28L251.93-8.28Q251.23-8.28 250.64-8.02L250.64-8.02L250.64-8.02Q250.06-7.75 249.62-7.31L249.62-7.31L249.62-7.31Q249.19-6.86 248.94-6.29L248.94-6.29L248.94-6.29Q248.69-5.71 248.69-5.11L248.69-5.11L248.69-5.11Q248.69-4.99 248.70-4.94L248.70-4.94L248.70-4.94Q248.71-4.90 248.71-4.87L248.71-4.87L248.71-4.87Q249.34-5.11 250.07-5.41L250.07-5.41L250.07-5.41Q250.80-5.71 251.52-6.01L251.52-6.01L251.52-6.01Q252.24-6.31 252.91-6.59L252.91-6.59L252.91-6.59Q253.58-6.86 254.11-7.08ZM264.05-9.14L264.05-9.14L262.97-7.70L262.97-7.70Q262.94-7.73 262.80-7.82L262.80-7.82L262.80-7.82Q262.66-7.92 262.43-8.02L262.43-8.02L262.43-8.02Q262.20-8.11 261.90-8.20L261.90-8.20L261.90-8.20Q261.60-8.28 261.29-8.28L261.29-8.28L261.29-8.28Q260.88-8.28 260.48-8.09L260.48-8.09L260.48-8.09Q260.09-7.90 260.09-7.37L260.09-7.37L260.09-7.37Q260.09-6.91 260.41-6.62L260.41-6.62L260.41-6.62Q260.74-6.34 261.22-6.11L261.22-6.11L261.22-6.11Q261.70-5.88 262.26-5.64L262.26-5.64L262.26-5.64Q262.82-5.40 263.30-5.05L263.30-5.05L263.30-5.05Q263.78-4.70 264.11-4.19L264.11-4.19L264.11-4.19Q264.43-3.67 264.43-2.88L264.43-2.88L264.43-2.88Q264.43-1.54 263.51-0.66L263.51-0.66L263.51-0.66Q262.58 0.22 260.98 0.22L260.98 0.22L260.98 0.22Q260.04 0.22 259.14-0.11L259.14-0.11L259.14-0.11Q258.24-0.43 257.69-1.06L257.69-1.06L257.69-1.06Q257.86-1.22 258.06-1.49L258.06-1.49L258.06-1.49Q258.26-1.75 258.47-1.99L258.47-1.99L258.47-1.99Q258.67-2.23 258.80-2.39L258.80-2.39L258.80-2.39Q258.94-2.54 258.96-2.54L258.96-2.54L258.96-2.54Q258.96-2.52 259.14-2.40L259.14-2.40L259.14-2.40Q259.32-2.28 259.61-2.15L259.61-2.15L259.61-2.15Q259.90-2.02 260.26-1.91L260.26-1.91L260.26-1.91Q260.62-1.80 260.98-1.80L260.98-1.80L260.98-1.80Q261.55-1.80 261.96-2.09L261.96-2.09L261.96-2.09Q262.37-2.38 262.37-2.86L262.37-2.86L262.37-2.86Q262.37-3.29 262.04-3.54L262.04-3.54L262.04-3.54Q261.72-3.79 261.24-4.01L261.24-4.01L261.24-4.01Q260.76-4.22 260.18-4.45L260.18-4.45L260.18-4.45Q259.61-4.68 259.13-5.04L259.13-5.04L259.13-5.04Q258.65-5.40 258.32-5.94L258.32-5.94L258.32-5.94Q258-6.48 258-7.34L258-7.34L258-7.34Q258-8.16 258.30-8.71L258.30-8.71L258.30-8.71Q258.60-9.26 259.07-9.61L259.07-9.61L259.07-9.61Q259.54-9.96 260.11-10.12L260.11-10.12L260.11-10.12Q260.69-10.27 261.22-10.27L261.22-10.27L261.22-10.27Q261.91-10.27 262.70-9.98L262.70-9.98L262.70-9.98Q263.50-9.70 264.05-9.14ZM272.21-9.14L272.21-9.14L271.13-7.70L271.13-7.70Q271.10-7.73 270.96-7.82L270.96-7.82L270.96-7.82Q270.82-7.92 270.59-8.02L270.59-8.02L270.59-8.02Q270.36-8.11 270.06-8.20L270.06-8.20L270.06-8.20Q269.76-8.28 269.45-8.28L269.45-8.28L269.45-8.28Q269.04-8.28 268.64-8.09L268.64-8.09L268.64-8.09Q268.25-7.90 268.25-7.37L268.25-7.37L268.25-7.37Q268.25-6.91 268.57-6.62L268.57-6.62L268.57-6.62Q268.90-6.34 269.38-6.11L269.38-6.11L269.38-6.11Q269.86-5.88 270.42-5.64L270.42-5.64L270.42-5.64Q270.98-5.40 271.46-5.05L271.46-5.05L271.46-5.05Q271.94-4.70 272.27-4.19L272.27-4.19L272.27-4.19Q272.59-3.67 272.59-2.88L272.59-2.88L272.59-2.88Q272.59-1.54 271.67-0.66L271.67-0.66L271.67-0.66Q270.74 0.22 269.14 0.22L269.14 0.22L269.14 0.22Q268.20 0.22 267.30-0.11L267.30-0.11L267.30-0.11Q266.40-0.43 265.85-1.06L265.85-1.06L265.85-1.06Q266.02-1.22 266.22-1.49L266.22-1.49L266.22-1.49Q266.42-1.75 266.63-1.99L266.63-1.99L266.63-1.99Q266.83-2.23 266.96-2.39L266.96-2.39L266.96-2.39Q267.10-2.54 267.12-2.54L267.12-2.54L267.12-2.54Q267.12-2.52 267.30-2.40L267.30-2.40L267.30-2.40Q267.48-2.28 267.77-2.15L267.77-2.15L267.77-2.15Q268.06-2.02 268.42-1.91L268.42-1.91L268.42-1.91Q268.78-1.80 269.14-1.80L269.14-1.80L269.14-1.80Q269.71-1.80 270.12-2.09L270.12-2.09L270.12-2.09Q270.53-2.38 270.53-2.86L270.53-2.86L270.53-2.86Q270.53-3.29 270.20-3.54L270.20-3.54L270.20-3.54Q269.88-3.79 269.40-4.01L269.40-4.01L269.40-4.01Q268.92-4.22 268.34-4.45L268.34-4.45L268.34-4.45Q267.77-4.68 267.29-5.04L267.29-5.04L267.29-5.04Q266.81-5.40 266.48-5.94L266.48-5.94L266.48-5.94Q266.16-6.48 266.16-7.34L266.16-7.34L266.16-7.34Q266.16-8.16 266.46-8.71L266.46-8.71L266.46-8.71Q266.76-9.26 267.23-9.61L267.23-9.61L267.23-9.61Q267.70-9.96 268.27-10.12L268.27-10.12L268.27-10.12Q268.85-10.27 269.38-10.27L269.38-10.27L269.38-10.27Q270.07-10.27 270.86-9.98L270.86-9.98L270.86-9.98Q271.66-9.70 272.21-9.14ZM281.23-14.95L281.23-8.69L283.61-8.69L283.61-8.69Q284.57-8.69 285.22-9.02L285.22-9.02L285.22-9.02Q285.86-9.36 286.24-9.84L286.24-9.84L286.24-9.84Q286.61-10.32 286.76-10.87L286.76-10.87L286.76-10.87Q286.92-11.42 286.92-11.86L286.92-11.86L286.92-11.86Q286.92-12.31 286.76-12.85L286.76-12.85L286.76-12.85Q286.61-13.39 286.22-13.86L286.22-13.86L286.22-13.86Q285.84-14.33 285.20-14.64L285.20-14.64L285.20-14.64Q284.57-14.95 283.63-14.95L283.63-14.95L281.23-14.95ZM281.23 0L278.59 0L278.59-17.40L283.34-17.40L283.34-17.40Q284.71-17.40 285.85-17.04L285.85-17.04L285.85-17.04Q286.99-16.68 287.82-15.97L287.82-15.97L287.82-15.97Q288.65-15.26 289.10-14.24L289.10-14.24L289.10-14.24Q289.56-13.22 289.56-11.90L289.56-11.90L289.56-11.90Q289.56-10.87 289.25-9.85L289.25-9.85L289.25-9.85Q288.94-8.83 288.24-8.03L288.24-8.03L288.24-8.03Q287.54-7.22 286.42-6.72L286.42-6.72L286.42-6.72Q285.29-6.22 283.68-6.22L283.68-6.22L281.23-6.22L281.23 0ZM297.72-10.30L297.26-7.66L297.26-7.66Q296.59-7.66 295.97-7.48L295.97-7.48L295.97-7.48Q295.34-7.30 294.85-6.94L294.85-6.94L294.85-6.94Q294.36-6.58 294.07-6.04L294.07-6.04L294.07-6.04Q293.78-5.50 293.78-4.80L293.78-4.80L293.78 0L291.74 0L291.74-10.03L293.54-10.03L293.54-10.03Q293.59-9.29 293.63-8.68L293.63-8.68L293.63-8.68Q293.66-8.06 293.71-7.46L293.71-7.46L293.71-7.46Q294.02-8.11 294.53-8.64L294.53-8.64L294.53-8.64Q295.03-9.17 295.61-9.53L295.61-9.53L295.61-9.53Q296.18-9.89 296.74-10.09L296.74-10.09L296.74-10.09Q297.29-10.30 297.72-10.30L297.72-10.30ZM298.51-5.04L298.51-5.04L298.51-5.04Q298.51-6.12 298.93-7.08L298.93-7.08L298.93-7.08Q299.35-8.04 300.07-8.75L300.07-8.75L300.07-8.75Q300.79-9.46 301.76-9.88L301.76-9.88L301.76-9.88Q302.74-10.30 303.86-10.30L303.86-10.30L303.86-10.30Q304.99-10.30 305.96-9.88L305.96-9.88L305.96-9.88Q306.94-9.46 307.64-8.75L307.64-8.75L307.64-8.75Q308.35-8.04 308.75-7.08L308.75-7.08L308.75-7.08Q309.14-6.12 309.14-5.04L309.14-5.04L309.14-5.04Q309.14-3.96 308.75-3L308.75-3L308.75-3Q308.35-2.04 307.64-1.32L307.64-1.32L307.64-1.32Q306.94-0.60 305.96-0.18L305.96-0.18L305.96-0.18Q304.99 0.24 303.84 0.24L303.84 0.24L303.84 0.24Q302.74 0.24 301.76-0.14L301.76-0.14L301.76-0.14Q300.79-0.53 300.07-1.22L300.07-1.22L300.07-1.22Q299.35-1.92 298.93-2.89L298.93-2.89L298.93-2.89Q298.51-3.86 298.51-5.04ZM300.55-5.02L300.55-5.02L300.55-5.02Q300.55-4.34 300.80-3.76L300.80-3.76L300.80-3.76Q301.06-3.17 301.50-2.72L301.50-2.72L301.50-2.72Q301.94-2.28 302.53-2.03L302.53-2.03L302.53-2.03Q303.12-1.78 303.79-1.78L303.79-1.78L303.79-1.78Q304.46-1.78 305.06-2.03L305.06-2.03L305.06-2.03Q305.66-2.28 306.11-2.72L306.11-2.72L306.11-2.72Q306.55-3.17 306.82-3.76L306.82-3.76L306.82-3.76Q307.08-4.34 307.08-5.02L307.08-5.02L307.08-5.02Q307.08-5.69 306.82-6.29L306.82-6.29L306.82-6.29Q306.55-6.89 306.11-7.33L306.11-7.33L306.11-7.33Q305.66-7.78 305.06-8.03L305.06-8.03L305.06-8.03Q304.46-8.28 303.79-8.28L303.79-8.28L303.79-8.28Q303.12-8.28 302.53-8.03L302.53-8.03L302.53-8.03Q301.94-7.78 301.50-7.33L301.50-7.33L301.50-7.33Q301.06-6.89 300.80-6.29L300.80-6.29L300.80-6.29Q300.55-5.69 300.55-5.02ZM312.19-10.01L312.19-14.45L314.23-14.45L314.23-10.01L316.92-10.01L316.92-8.18L314.23-8.18L314.23 0L312.19 0L312.19-8.18L310.39-8.18L310.39-10.01L312.19-10.01ZM317.93-5.04L317.93-5.04L317.93-5.04Q317.93-6.12 318.35-7.08L318.35-7.08L318.35-7.08Q318.77-8.04 319.49-8.75L319.49-8.75L319.49-8.75Q320.21-9.46 321.18-9.88L321.18-9.88L321.18-9.88Q322.15-10.30 323.28-10.30L323.28-10.30L323.28-10.30Q324.41-10.30 325.38-9.88L325.38-9.88L325.38-9.88Q326.35-9.46 327.06-8.75L327.06-8.75L327.06-8.75Q327.77-8.04 328.16-7.08L328.16-7.08L328.16-7.08Q328.56-6.12 328.56-5.04L328.56-5.04L328.56-5.04Q328.56-3.96 328.16-3L328.16-3L328.16-3Q327.77-2.04 327.06-1.32L327.06-1.32L327.06-1.32Q326.35-0.60 325.38-0.18L325.38-0.18L325.38-0.18Q324.41 0.24 323.26 0.24L323.26 0.24L323.26 0.24Q322.15 0.24 321.18-0.14L321.18-0.14L321.18-0.14Q320.21-0.53 319.49-1.22L319.49-1.22L319.49-1.22Q318.77-1.92 318.35-2.89L318.35-2.89L318.35-2.89Q317.93-3.86 317.93-5.04ZM319.97-5.02L319.97-5.02L319.97-5.02Q319.97-4.34 320.22-3.76L320.22-3.76L320.22-3.76Q320.47-3.17 320.92-2.72L320.92-2.72L320.92-2.72Q321.36-2.28 321.95-2.03L321.95-2.03L321.95-2.03Q322.54-1.78 323.21-1.78L323.21-1.78L323.21-1.78Q323.88-1.78 324.48-2.03L324.48-2.03L324.48-2.03Q325.08-2.28 325.52-2.72L325.52-2.72L325.52-2.72Q325.97-3.17 326.23-3.76L326.23-3.76L326.23-3.76Q326.50-4.34 326.50-5.02L326.50-5.02L326.50-5.02Q326.50-5.69 326.23-6.29L326.23-6.29L326.23-6.29Q325.97-6.89 325.52-7.33L325.52-7.33L325.52-7.33Q325.08-7.78 324.48-8.03L324.48-8.03L324.48-8.03Q323.88-8.28 323.21-8.28L323.21-8.28L323.21-8.28Q322.54-8.28 321.95-8.03L321.95-8.03L321.95-8.03Q321.36-7.78 320.92-7.33L320.92-7.33L320.92-7.33Q320.47-6.89 320.22-6.29L320.22-6.29L320.22-6.29Q319.97-5.69 319.97-5.02ZM337.46-2.47L337.46-2.47L337.46-2.47Q337.80-2.06 338.10-1.69L338.10-1.69L338.10-1.69Q338.40-1.32 338.71-0.91L338.71-0.91L338.71-0.91Q338.04-0.38 337.20-0.07L337.20-0.07L337.20-0.07Q336.36 0.24 335.38 0.24L335.38 0.24L335.38 0.24Q334.27 0.24 333.30-0.18L333.30-0.18L333.30-0.18Q332.33-0.60 331.61-1.32L331.61-1.32L331.61-1.32Q330.89-2.04 330.47-3L330.47-3L330.47-3Q330.05-3.96 330.05-5.04L330.05-5.04L330.05-5.04Q330.05-6.12 330.47-7.08L330.47-7.08L330.47-7.08Q330.89-8.04 331.61-8.75L331.61-8.75L331.61-8.75Q332.33-9.46 333.30-9.88L333.30-9.88L333.30-9.88Q334.27-10.30 335.38-10.30L335.38-10.30L335.38-10.30Q336.38-10.30 337.24-9.98L337.24-9.98L337.24-9.98Q338.09-9.67 338.78-9.14L338.78-9.14L337.46-7.58L337.46-7.58Q337.06-7.92 336.53-8.10L336.53-8.10L336.53-8.10Q336.00-8.28 335.38-8.28L335.38-8.28L335.38-8.28Q334.66-8.28 334.06-8.03L334.06-8.03L334.06-8.03Q333.46-7.78 333.01-7.34L333.01-7.34L333.01-7.34Q332.57-6.91 332.33-6.32L332.33-6.32L332.33-6.32Q332.09-5.74 332.09-5.04L332.09-5.04L332.09-5.04Q332.09-4.34 332.33-3.76L332.33-3.76L332.33-3.76Q332.57-3.17 333.01-2.72L333.01-2.72L333.01-2.72Q333.46-2.28 334.06-2.03L334.06-2.03L334.06-2.03Q334.66-1.78 335.38-1.78L335.38-1.78L335.38-1.78Q336.00-1.78 336.53-1.96L336.53-1.96L336.53-1.96Q337.06-2.14 337.46-2.47ZM340.03-5.04L340.03-5.04L340.03-5.04Q340.03-6.12 340.45-7.08L340.45-7.08L340.45-7.08Q340.87-8.04 341.59-8.75L341.59-8.75L341.59-8.75Q342.31-9.46 343.28-9.88L343.28-9.88L343.28-9.88Q344.26-10.30 345.38-10.30L345.38-10.30L345.38-10.30Q346.51-10.30 347.48-9.88L347.48-9.88L347.48-9.88Q348.46-9.46 349.16-8.75L349.16-8.75L349.16-8.75Q349.87-8.04 350.27-7.08L350.27-7.08L350.27-7.08Q350.66-6.12 350.66-5.04L350.66-5.04L350.66-5.04Q350.66-3.96 350.27-3L350.27-3L350.27-3Q349.87-2.04 349.16-1.32L349.16-1.32L349.16-1.32Q348.46-0.60 347.48-0.18L347.48-0.18L347.48-0.18Q346.51 0.24 345.36 0.24L345.36 0.24L345.36 0.24Q344.26 0.24 343.28-0.14L343.28-0.14L343.28-0.14Q342.31-0.53 341.59-1.22L341.59-1.22L341.59-1.22Q340.87-1.92 340.45-2.89L340.45-2.89L340.45-2.89Q340.03-3.86 340.03-5.04ZM342.07-5.02L342.07-5.02L342.07-5.02Q342.07-4.34 342.32-3.76L342.32-3.76L342.32-3.76Q342.58-3.17 343.02-2.72L343.02-2.72L343.02-2.72Q343.46-2.28 344.05-2.03L344.05-2.03L344.05-2.03Q344.64-1.78 345.31-1.78L345.31-1.78L345.31-1.78Q345.98-1.78 346.58-2.03L346.58-2.03L346.58-2.03Q347.18-2.28 347.63-2.72L347.63-2.72L347.63-2.72Q348.07-3.17 348.34-3.76L348.34-3.76L348.34-3.76Q348.60-4.34 348.60-5.02L348.60-5.02L348.60-5.02Q348.60-5.69 348.34-6.29L348.34-6.29L348.34-6.29Q348.07-6.89 347.63-7.33L347.63-7.33L347.63-7.33Q347.18-7.78 346.58-8.03L346.58-8.03L346.58-8.03Q345.98-8.28 345.31-8.28L345.31-8.28L345.31-8.28Q344.64-8.28 344.05-8.03L344.05-8.03L344.05-8.03Q343.46-7.78 343.02-7.33L343.02-7.33L343.02-7.33Q342.58-6.89 342.32-6.29L342.32-6.29L342.32-6.29Q342.07-5.69 342.07-5.02ZM354.91-18.65L354.91 0L352.87 0L352.87-18.65L354.91-18.65Z"/></g></g></g></g></svg>